HIERARCHY
ROOT Hips
{
  OFFSET 3.13124 94.3669 -3.18751
  CHANNELS  6 Xposition Yposition Zposition Zrotation Xrotation Yrotation
  JOINT LeftUpLeg
  {
    OFFSET 8.64259 1.95398 -2.38835
    CHANNELS 3 Zrotation Xrotation Yrotation
    JOINT LeftLeg
    {
      OFFSET 43.7702 0 0
      CHANNELS 3 Zrotation Xrotation Yrotation
      JOINT LeftFoot
      {
        OFFSET 40.6238 0 0
        CHANNELS 3 Zrotation Xrotation Yrotation
        JOINT LeftToeBase
        {
          OFFSET 12.7242 0 0
          CHANNELS 3 Zrotation Xrotation Yrotation
          End Site
          {
            OFFSET 0 0 0
          }
        }
      }
    }
  }
  JOINT RightUpLeg
  {
    OFFSET -8.2249 1.95398 -2.59336
    CHANNELS 3 Zrotation Xrotation Yrotation
    JOINT RightLeg
    {
      OFFSET 43.5653 0 0
      CHANNELS 3 Zrotation Xrotation Yrotation
      JOINT RightFoot
      {
        OFFSET 40.6238 0 0
        CHANNELS 3 Zrotation Xrotation Yrotation
        JOINT RightToeBase
        {
          OFFSET 12.7242 0 0
          CHANNELS 3 Zrotation Xrotation Yrotation
          End Site
          {
            OFFSET 0 0 0
          }
        }
      }
    }
  }
  JOINT Spine
  {
    OFFSET 0.165834 0.87714 6.61349
    CHANNELS 3 Zrotation Xrotation Yrotation
    JOINT Spine1
    {
      OFFSET 7.38962 1.71661e-005 0
      CHANNELS 3 Zrotation Xrotation Yrotation
      JOINT Spine2
      {
        OFFSET 11.9445 1.14441e-005 0
        CHANNELS 3 Zrotation Xrotation Yrotation
        JOINT Spine3
        {
          OFFSET 14.7254 4.19617e-005 0
          CHANNELS 3 Zrotation Xrotation Yrotation
          JOINT Spine4
          {
            OFFSET 10.9679 0 0
            CHANNELS 3 Zrotation Xrotation Yrotation
            JOINT RightShoulder
            {
              OFFSET 2.46616 -1.6653 3.69651
              CHANNELS 3 Zrotation Xrotation Yrotation
              JOINT RightArm
              {
                OFFSET 13.0012 0 0
                CHANNELS 3 Zrotation Xrotation Yrotation
                JOINT RightForeArm
                {
                  OFFSET 28.7848 1.52588e-005 0
                  CHANNELS 3 Zrotation Xrotation Yrotation
                  JOINT RightHand
                  {
                    OFFSET 26.5688 1.52588e-005 0
                    CHANNELS 3 Zrotation Xrotation Yrotation
                    End Site
                    {
                      OFFSET 0 0 0
                    }
                  }
                }
              }
            }
            JOINT LeftShoulder
            {
              OFFSET 2.38034 -1.29275 -3.75231
              CHANNELS 3 Zrotation Xrotation Yrotation
              JOINT LeftArm
              {
                OFFSET 16.3182 6.10352e-005 0
                CHANNELS 3 Zrotation Xrotation Yrotation
                JOINT LeftForeArm
                {
                  OFFSET 27.0901 0 0
                  CHANNELS 3 Zrotation Xrotation Yrotation
                  JOINT LeftHand
                  {
                    OFFSET 24.5451 1.52588e-005 0
                    CHANNELS 3 Zrotation Xrotation Yrotation
                    End Site
                    {
                      OFFSET 0 0 0
                    }
                  }
                }
              }
            }
            JOINT Neck
            {
              OFFSET 5.0226 -0.0266342 0
              CHANNELS 3 Zrotation Xrotation Yrotation
              JOINT Head
              {
                OFFSET 6.69363 2.86102e-005 0
                CHANNELS 3 Zrotation Xrotation Yrotation
                End Site
                {
                  OFFSET 0 0 0
                }
              }
            }
          }
        }
      }
    }
  }
}
MOTION
Frames:	18
Frame Time:	0.0333333
129.565 84.3685 75.825 -99.1465 -65.8372 -106.726 155.176 34.7505 85.2772 -13.7296 -63.4205 44.2136 -77.9881 14.5043 -54.761 28.7808 4.60461e-006 2.67529e-006 177.953 3.72886 95.0065 -62.6493 20.259 0.899831 99.6317 0.470866 -0.540736 28.7808 1.55448e-005 2.75158e-005 2.39811 8.28713 -92.8298 10.0792 3.66852 0.336921 -1.5866 3.67847 0.174764 -24.1585 3.40638 1.42619 -4.14582 3.40637 1.42619 101.122 -45.6007 -83.7186 30.9934 28.5185 -33.0016 60.3271 -53.0399 -113.828 32.9872 -2.15297 -12.1205 -128.981 -56.7457 29.3252 4.41423 -26.1275 -15.0402 -176.488 -64.1724 -178.904 44.9174 -12.3052 -32.4331 -6.62479 -4.61561 -13.4474 -11.7813 -1.45373 -23.7261 
128.649 82.7273 79.6551 -93.1694 -60.8545 -100.906 154.834 36.4568 86.7627 -36.3947 -59.8569 30.6341 -74.1403 16.3185 -72.5214 28.7808 4.60461e-006 2.67529e-006 176.954 20.9317 92.0547 -79.8965 14.9469 0.147973 94.7396 5.23926 0.850398 28.7808 1.55448e-005 2.75158e-005 2.61819 8.2611 -93.7827 10.0016 3.89514 0.811364 -1.66369 3.9271 0.63888 -24.2359 3.47084 1.94571 -4.22322 3.47084 1.9457 104.54 -45.3132 -78.0807 31.2265 27.6458 -36.016 58.4697 -53.5344 -115.56 30.9883 -2.43788 -13.5988 -127.312 -54.8201 30.1879 3.25943 -33.5738 12.4962 -156.785 -14.6943 -121.746 -5.15767 1.04865 -48.8616 0.029634 -8.22706 -19.3543 -18.1198 -3.06577 -17.0465 
127.679 80.9215 83.1865 -91.3565 -56.0788 -97.8052 155.118 36.0248 88.143 -56.3378 -49.9623 18.6899 -68.6618 15.7633 -93.9309 28.7808 4.60461e-006 2.67529e-006 174.928 35.4386 96.0085 -87.0709 16.0766 0.075931 80.6924 4.51465 1.54103 28.7808 1.55448e-005 2.75158e-005 2.86575 8.25781 -94.9655 9.87374 4.04285 1.02307 -1.79119 4.0834 0.843758 -24.3643 3.55187 2.19272 -4.3517 3.55186 2.19269 106.404 -46.6726 -75.1236 31.1889 26.6874 -38.4565 60.4447 -54.3316 -114.052 31.0907 -3.16188 -16.1078 -126.148 -50.2367 28.8328 2.04377 -32.5376 24.5825 -147.901 -12.9756 -110.848 -5.72424 0.455557 -22.3175 3.65753 -11.4965 -26.0014 -22.0409 -5.17752 -9.94731 
126.743 78.9439 86.6286 -91.6003 -52.8351 -96.8064 155.652 34.3511 87.9355 -69.7857 -31.2375 11.6706 -61.4886 10.0783 -120.303 28.7808 4.60461e-006 2.67529e-006 172.278 47.2148 100.129 -88.9291 15.7726 0.0425601 67.9876 4.61789 2.44015 28.7808 1.55448e-005 2.75158e-005 3.04605 8.28415 -96.1762 9.70521 3.93455 1.2157 -1.96026 3.98504 1.04123 -24.5279 3.38474 2.34234 -4.51522 3.38473 2.34231 107.895 -48.9673 -72.9695 31.8754 27.5842 -40.6467 60.8036 -54.257 -113.724 32.0987 -3.14738 -15.6956 -124.379 -40.795 24.8895 -5.44638 -25.8469 37.7127 -155.895 -7.57799 -106.782 -29.6679 1.14937 -9.147 4.86875 -14.2879 -31.9652 -23.8081 -7.44214 -4.30857 
125.97 76.4722 89.9892 -91.2946 -51.5884 -95.5489 153.642 32.4527 89.3718 -68.3632 -49.0576 12.5229 -71.095 21.2421 -107.687 28.7808 4.60461e-006 2.67529e-006 169.779 56.3935 103.627 -85.2706 20.4828 0.534264 61.1865 -1.62813 -0.799501 28.7808 1.55448e-005 2.75158e-005 3.23143 8.20065 -97.5304 9.75143 3.37182 1.48451 -1.91584 3.43385 1.33467 -24.4697 2.76986 2.42756 -4.45701 2.76985 2.42755 108.958 -51.141 -71.5743 32.0747 27.9515 -41.6433 61.2739 -53.6989 -113.183 33.5871 -3.20573 -15.3686 -121.634 -34.3495 23.8867 -17.4325 -17.7747 41.7296 -159.537 -6.47184 -106.753 -51.7474 -1.80514 -0.569276 3.69141 -15.6513 -37.801 -22.9895 -8.9543 0.409981 
124.403 75.4877 92.746 -91.8714 -51.4317 -95.6209 155.698 31.2199 85.3182 -85.3562 22.7669 8.77132 -57.9705 -16.8303 -179.117 28.7808 4.60461e-006 2.67529e-006 169.728 60.5716 103.799 -77.6222 20.3388 0.773944 60.7754 -4.69366 -2.65059 28.7808 1.55448e-005 2.75158e-005 2.85649 8.21529 -97.8975 9.81517 2.65737 1.65382 -1.85398 2.72766 1.53343 -24.3946 2.037 2.38249 -4.38195 2.037 2.38247 109.459 -52.5172 -70.991 32.0811 28.109 -40.9723 62.306 -54.1154 -112.397 34.0752 -2.87911 -14.2011 -119.77 -30.8417 23.768 -27.9063 -11.2629 41.5991 -158.897 -7.65158 -109.22 -69.2686 -4.37917 2.16581 2.26895 -15.8529 -41.8806 -22.7744 -9.37279 2.64688 
122.427 74.4133 95.5892 -94.173 -51.0498 -95.95 155.908 27.3033 84.5436 -96.2045 59.4782 14.8706 -69.6422 -33.5316 141.232 28.7808 4.60461e-006 2.67529e-006 169.417 60.6967 104.819 -71.9982 24.7503 1.55519 65.7946 -8.0798 -4.43386 28.7808 1.55448e-005 2.75158e-005 2.18323 8.33182 -98.2737 9.74617 1.89908 1.5347 -1.9242 1.96478 1.44967 -24.4585 1.35015 2.0344 -4.44589 1.35015 2.03437 108.814 -53.5367 -72.0801 32.2189 28.7083 -40.0945 63.9417 -54.4851 -111.083 34.5766 -2.71187 -13.5401 -119.077 -30.0619 24.1521 -35.4256 -6.88563 40.1872 -155.105 -10.4496 -112.075 -82.2716 -4.57464 0.914843 0.178894 -14.6495 -43.9132 -22.5735 -8.65857 2.87784 
119.385 73.8637 98.6408 -96.5454 -48.1288 -96.5563 157.519 21.2888 84.4336 110.861 68.5523 165.083 -106.978 -38.171 75.7097 28.7808 4.60461e-006 2.67529e-006 168.525 57.0921 107.326 -70.7923 29.0306 2.19507 68.2086 -8.27887 -4.43272 28.7808 1.55448e-005 2.75158e-005 1.22799 8.49015 -98.2204 9.62072 1.69181 1.51071 -2.04991 1.75665 1.43423 -24.5827 1.15948 1.94964 -4.57009 1.15949 1.94963 106.374 -54.6096 -75.7864 32.8012 30.2777 -39.4844 67.5747 -54.9806 -108.099 35.5355 -2.27244 -11.9621 -118.948 -30.8632 24.9623 -40.9615 -3.95709 38.5599 -149.752 -14.4244 -114.353 -91.6643 -1.62492 -2.81761 -2.61254 -12.6677 -44.9452 -21.9234 -7.62303 2.59259 
116.09 73.0683 101.466 -98.0339 -46.0846 -97.3397 157.877 16.3661 84.6481 98.5222 24.0596 177.34 -131.356 -18.2168 27.4149 28.7808 4.60461e-006 2.67529e-006 166.975 53.8225 110.269 -73.3655 29.7407 1.95552 62.9433 -14.7425 -8.59735 28.7808 1.55448e-005 2.75158e-005 0.15076 8.58398 -98.3242 9.64677 1.43021 1.55902 -2.02421 1.49743 1.4947 -24.555 0.895539 1.91821 -4.54239 0.895524 1.91821 103.789 -54.5841 -79.5874 33.0802 30.8119 -39.0724 66.093 -55.3192 -109.42 34.973 -2.15098 -11.6984 -120.026 -33.0857 25.1614 -44.6195 -2.30793 36.4377 -143.495 -19.6418 -116.055 -97.3999 2.88404 -7.09533 -4.88716 -10.5792 -42.9096 -21.0917 -6.30353 -0.019948 
113.307 72.4238 103.369 -97.5006 -46.4453 -96.221 156.262 14.65 86.4574 97.299 -9.09263 179.569 -136.657 1.21879 2.91185 28.7808 4.60461e-006 2.67529e-006 165.773 52.4765 112.465 -74.6463 32.2593 2.58531 72.7318 -11.1785 -5.55741 28.7808 1.55448e-005 2.75158e-005 -0.435053 8.49155 -98.971 9.99874 0.713537 1.5767 -1.67291 0.781971 1.54189 -24.2006 0.208332 1.71349 -4.18798 0.208325 1.71346 100.418 -54.4315 -84.5541 33.5824 31.7626 -38.9749 65.2738 -55.6428 -110.185 34.4314 -1.95862 -11.1997 -120.93 -35.1943 25.4908 -47.5896 -0.952342 33.3299 -137.14 -25.6877 -116.986 -100.38 8.68431 -12.0023 -7.15739 -8.21033 -40.0273 -19.019 -4.66176 -3.08521 
110.526 72.562 105.053 -96.9263 -46.5122 -95.1209 154.371 15.1123 88.8444 96.4689 -48.1226 -177.603 -132.782 25.0616 -26.4633 28.7808 4.60461e-006 2.67529e-006 166.086 50.2169 112.609 -75.3509 36.5455 4.23534 79.7102 -2.02706 -1.3091 28.7808 1.55448e-005 2.75158e-005 -0.880692 8.44168 -99.6661 10.241 -0.042463 1.37357 -1.43069 0.0183201 1.37495 -23.9604 -0.455335 1.29963 -3.94777 -0.455329 1.2996 97.181 -53.0792 -89.4499 33.5665 32.123 -38.1109 65.3909 -55.5697 -110.07 33.7168 -1.83734 -10.9462 -122.265 -38.0037 25.7208 -49.7573 0.189079 28.7436 -131.325 -32.4597 -117.475 -101.052 14.6823 -17.0749 -8.9201 -5.87849 -34.847 -16.4146 -2.89179 -7.17206 
106.085 73.7658 108.234 -95.4059 -41.9418 -93.897 155.889 18.1299 91.3707 100.284 -75.9624 -171.664 -124.777 40.8434 -51.4684 28.7808 4.60461e-006 2.67529e-006 166.873 45.1314 113.563 -74.6249 33.6948 3.62005 86.6738 2.38965 0.19352 28.7808 1.55448e-005 2.75158e-005 -0.801808 8.29412 -99.6575 10.5237 0.0504619 1.32785 -1.14791 0.108931 1.32481 -23.6779 -0.351586 1.27845 -3.66527 -0.35159 1.27843 92.819 -52.9573 -95.9689 32.8667 32.0092 -37.0596 66.3721 -53.6425 -108.853 37.1355 -1.496 -9.38081 -122.985 -40.5751 26.5715 -52.1245 1.41584 24.0576 -126.308 -39.3482 -117.404 -99.6841 21.0583 -23.0221 -11.2329 -3.37611 -29.8331 -15.0301 -0.958171 -11.2227 
100.628 74.908 112.217 -93.4679 -36.2014 -93.3509 158.354 23.6416 93.1313 -86.1923 -48.7879 1.31982 -79.8255 48.7136 -128.928 28.7808 4.60461e-006 2.67529e-006 168.35 39.4843 112.756 -74.5431 27.1859 2.71979 92.5344 0.490166 -0.425869 28.7808 1.55448e-005 2.75158e-005 -0.253896 8.01527 -99.5073 10.9139 0.375017 1.47063 -0.757846 0.439354 1.45258 -23.2863 -0.0842121 1.5152 -3.27365 -0.0842273 1.51518 87.9594 -53.231 -103.1 32.3005 31.8098 -35.1504 65.4945 -52.7796 -109.407 38.314 -0.76163 -7.16505 -123.397 -42.8317 27.5712 -54.4355 2.55676 18.9553 -122.369 -46.5114 -117.304 -96.4376 26.8405 -29.5084 -14.8395 -0.891413 -25.391 -12.2267 0.50677 -13.9749 
94.3291 77.3753 115.916 -91.3585 -29.4068 -94.3398 162.485 29.9242 92.4523 -80.5041 -3.80098 5.73017 -53.6206 35.4383 170.685 28.7808 4.60461e-006 2.67529e-006 171.689 31.9574 108.681 -70.0391 19.7773 1.64512 95.6535 -3.55283 -1.32598 28.7808 1.55448e-005 2.75158e-005 0.802249 7.69472 -98.4218 11.3213 1.03765 1.6133 -0.350214 1.10775 1.56798 -22.8784 0.504181 1.85315 -2.86575 0.504181 1.85313 83.8603 -52.9855 -109.16 31.9776 32.2568 -32.6754 64.9639 -52.5055 -109.789 38.756 -0.225389 -5.64245 -124.147 -44.8841 27.957 -56.4464 3.34509 13.2417 -120.088 -54.3067 -117.97 -92.1093 31.3056 -35.8912 -19.5935 1.08988 -20.5661 -7.5601 1.1616 -16.7579 
88.7004 80.7907 118.165 -89.6405 -21.7904 -96.3536 168.422 34.6779 89.9035 -74.8986 28.9849 9.97457 -47.2181 22.1278 130.598 28.7808 4.60461e-006 2.67529e-006 174.991 23.8418 103.687 -61.6758 11.279 0.634173 93.5846 -10.2847 -2.99728 28.7808 1.55448e-005 2.75158e-005 1.74209 7.48087 -96.4545 11.5937 1.96708 1.53984 -0.0767776 2.03295 1.45177 -22.6103 1.41344 2.05486 -2.59762 1.41343 2.05483 81.1145 -51.8764 -113.546 31.9934 33.6453 -30.7889 64.6744 -52.0198 -109.921 39.0365 0.26618 -4.27382 -125.152 -46.8674 27.96 -58.2342 3.76373 6.2621 -121.968 -63.1388 -122.013 -87.9521 34.4517 -41.4851 -24.1088 2.18952 -15.3338 -3.55262 1.30413 -19.767 
84.394 84.6655 119.486 -88.9689 -15.2756 -99.6207 174.362 37.7404 85.886 -70.3914 51.746 17.867 -42.9555 18.0659 99.3751 28.7808 4.60461e-006 2.67529e-006 178.026 15.6303 97.8349 -51.0723 3.5859 -0.0638928 87.6873 -16.1272 -5.32415 28.7808 1.55448e-005 2.75158e-005 1.91969 7.51428 -93.3786 11.6265 2.59167 1.2927 -0.0424033 2.64603 1.17733 -22.5874 2.08338 2.01196 -2.57469 2.08337 2.01195 80.2227 -49.0937 -115.925 31.4942 33.9788 -29.7238 62.6044 -49.7039 -111.062 40.8546 -0.197726 -5.54116 -125.409 -48.9831 28.9774 -60.1781 3.69154 -3.36002 -141.224 -73.1774 -142.99 -86.6825 36.4537 -44.4254 -26.3788 2.58688 -9.13099 -2.12819 1.77878 -22.8358 
80.8881 87.0678 120.755 -88.9563 -11.8612 -103.877 -178.977 42.5062 78.8079 -72.4602 65.6144 26.8939 -41.151 14.4357 76.1747 28.7808 4.60461e-006 2.67529e-006 179.399 9.70522 92.14 -44.2862 0.957146 -0.32823 83.287 -19.2447 -7.18742 28.7808 1.55448e-005 2.75158e-005 0.64799 7.61499 -89.7896 11.6196 2.74333 1.18331 -0.0489172 2.79275 1.06135 -22.5967 2.26088 1.9533 -2.58411 2.26089 1.95329 80.0884 -46.3923 -117.249 31.2126 33.9397 -29.0519 61.2441 -48.7458 -111.911 40.0305 -0.416073 -6.13844 -124.769 -50.8764 30.9499 -62.1129 3.87065 -12.1667 -177.064 -77.7049 179.979 -83.6319 38.1099 -48.3202 -27.4936 2.36279 -2.94282 -2.32024 2.19391 -26.4325 
77.0989 87.7263 122.631 -88.9916 -10.0586 -105.929 -172.535 46.4473 77.7733 -37.1325 78.6664 -10.0194 -47.1342 10.3359 66.9917 28.7808 4.60461e-006 2.67529e-006 179.467 6.13798 89.0651 -42.6279 0.49159 -0.380582 81.6601 -18.6404 -7.30986 28.7808 1.55448e-005 2.75158e-005 -0.154353 7.56025 -88.6799 11.7848 2.6502 1.26556 0.116082 2.70331 1.14764 -22.4295 2.14737 2.00375 -2.41691 2.14734 2.00373 80.1933 -45.1387 -117.616 31.1967 34.8561 -29.2155 64.1725 -48.0157 -109.372 43.0251 0.0142129 -4.99147 -124.073 -52.2661 32.6536 -63.2117 5.89025 -14.6638 -176.965 -81.5898 179.969 -69.5891 38.3946 -59.7636 -27.5434 2.36159 1.20172 -4.4485 3.31821 -30.1424 
